HIERARCHY
ROOT joint_Root
{
	OFFSET 0.0 0.0 0.0
	CHANNELS 6 Xposition Yposition Zposition Zrotation Xrotation Yrotation 
	JOINT Hips
	{
		OFFSET -0.726466 93.3139 -2.00062
		CHANNELS 6 Xposition Yposition Zposition Zrotation Xrotation Yrotation 
		JOINT Spine
		{
			OFFSET 15.7357 0.0 0.0
			CHANNELS 6 Xposition Yposition Zposition Zrotation Xrotation Yrotation 
			JOINT Chest
			{
				OFFSET 8.98455 -0.406207 0.0
				CHANNELS 6 Xposition Yposition Zposition Zrotation Xrotation Yrotation 
				JOINT Neck
				{
					OFFSET 16.3773 0.0 0.0
					CHANNELS 6 Xposition Yposition Zposition Zrotation Xrotation Yrotation 
					JOINT Head
					{
						OFFSET 6.45672 0.0 0.0
						CHANNELS 6 Xposition Yposition Zposition Zrotation Xrotation Yrotation 
						End Site
						{
							OFFSET 0.0 0.0 0.0
						}
					}
				}
				JOINT Shoulder_L
				{
					OFFSET 12.9942 -0.242716 4.98039
					CHANNELS 6 Xposition Yposition Zposition Zrotation Xrotation Yrotation 
					JOINT UpperArm_L
					{
						OFFSET 5.34809 0.0 0.0
						CHANNELS 6 Xposition Yposition Zposition Zrotation Xrotation Yrotation 
						JOINT LowerArm_L
						{
							OFFSET 24.3286 1.87007e-05 0.0
							CHANNELS 6 Xposition Yposition Zposition Zrotation Xrotation Yrotation 
							JOINT Hand_L
							{
								OFFSET 22.2916 0.0 0.0
								CHANNELS 6 Xposition Yposition Zposition Zrotation Xrotation Yrotation 
								End Site
								{
									OFFSET 0.0 0.0 0.0
								}
							}
						}
					}
				}
				JOINT Shoulder_R
				{
					OFFSET 12.9945 -0.242716 -4.98039
					CHANNELS 6 Xposition Yposition Zposition Zrotation Xrotation Yrotation 
					JOINT UpperArm_R
					{
						OFFSET -5.34813 0.0 0.0
						CHANNELS 6 Xposition Yposition Zposition Zrotation Xrotation Yrotation 
						JOINT LowerArm_R
						{
							OFFSET -24.3289 0.000322201 0.0
							CHANNELS 6 Xposition Yposition Zposition Zrotation Xrotation Yrotation 
							JOINT Hand_R
							{
								OFFSET -22.2915 -0.000108084 0.0
								CHANNELS 6 Xposition Yposition Zposition Zrotation Xrotation Yrotation 
								End Site
								{
									OFFSET 0.0 0.0 0.0
								}
							}
						}
					}
				}
			}
		}
		JOINT UpperLeg_L
		{
			OFFSET -2.19248 -6.46944 0.0
			CHANNELS 6 Xposition Yposition Zposition Zrotation Xrotation Yrotation 
			JOINT LowerLeg_L
			{
				OFFSET 39.0811 0.0 -1.23785e-05
				CHANNELS 6 Xposition Yposition Zposition Zrotation Xrotation Yrotation 
				JOINT Foot_L
				{
					OFFSET 40.9854 0.0 -1.26872e-05
					CHANNELS 6 Xposition Yposition Zposition Zrotation Xrotation Yrotation 
					JOINT Toes_L
					{
						OFFSET 11.7543 0.0 0.0
						CHANNELS 6 Xposition Yposition Zposition Zrotation Xrotation Yrotation 
						End Site
						{
							OFFSET 0.0 0.0 0.0
						}
					}
				}
			}
		}
		JOINT UpperLeg_R
		{
			OFFSET -2.19251 6.46944 0.0
			CHANNELS 6 Xposition Yposition Zposition Zrotation Xrotation Yrotation 
			JOINT LowerLeg_R
			{
				OFFSET -39.0811 -0.00228153 -0.0401928
				CHANNELS 6 Xposition Yposition Zposition Zrotation Xrotation Yrotation 
				JOINT Foot_R
				{
					OFFSET -40.9854 0.0 0.0
					CHANNELS 6 Xposition Yposition Zposition Zrotation Xrotation Yrotation 
					JOINT Toes_R
					{
						OFFSET -11.7543 0.0 0.0
						CHANNELS 6 Xposition Yposition Zposition Zrotation Xrotation Yrotation 
						End Site
						{
							OFFSET 0.0 0.0 0.0
						}
					}
				}
			}
		}
	}
}
MOTION
Frames:	8
Frame Time:	0.0333333
0.000000 0.000000 0.000000 0.000000 0.000000 -0.000000 -0.637765 92.349200 -2.153510 88.101800 -1.075980 4.541370 15.735700 0.000005 -0.000001 82.982400 85.231500 -82.595500 8.984550 -0.406207 -0.000000 1.704020 -1.184980 0.790739 16.377300 -0.000001 -0.000001 1.386830 -2.461490 0.587405 6.456720 -0.000001 -0.000000 4.336060 -2.492230 -0.773336 12.994200 -0.242716 4.980390 -90.228500 0.760652 -73.279300 5.348090 -0.000007 -0.000001 -65.878200 38.182400 -17.579600 24.328600 0.000019 0.000005 1.807630 4.262090 -23.006900 22.291600 -0.000001 0.000005 -0.469798 5.420010 -3.575690 12.994500 -0.242716 -4.980390 88.202300 6.192540 -73.776900 -5.348130 -0.000001 -0.000004 -63.952600 40.689300 -18.536000 -24.328900 0.000322 -0.000009 3.375150 10.568500 -17.829400 -22.291500 -0.000108 -0.000004 1.528450 5.354530 -1.500540 -2.192480 -6.469440 -0.000000 -175.717000 -6.565380 -3.058650 39.081100 -0.000007 -0.000012 -0.095555 0.223548 23.144100 40.985400 -0.000006 -0.000013 -0.248226 2.634600 -65.729500 11.754300 -0.000000 0.000003 -0.000041 -0.000479 -16.596200 -2.192510 6.469440 -0.000001 179.611000 14.822200 -179.920000 -39.081100 -0.002282 -0.040193 -0.021563 0.069905 19.594700 -40.985400 0.000008 0.000006 3.632940 6.301210 -65.554200 -11.754300 -0.000006 -0.000006 -0.006345 -0.073942 -19.582700
0.000000 0.000000 0.000000 0.000000 0.000000 -0.000000 -0.675269 92.348200 -2.191570 88.092800 -0.921219 4.626140 15.735700 0.000005 -0.000001 83.015700 85.200300 -82.646200 8.984550 -0.406207 -0.000000 1.766440 -1.185930 0.756570 16.377300 -0.000001 -0.000001 1.420660 -2.512120 0.605797 6.456720 -0.000001 -0.000000 4.390090 -2.560300 -0.677294 12.994200 -0.242716 4.980390 -90.282300 0.949551 -73.440600 5.348090 -0.000007 -0.000001 -63.593600 37.095900 -19.924200 24.328600 0.000019 0.000005 2.364040 5.121710 -24.812800 22.291600 -0.000001 0.000005 -4.383720 5.352070 -1.404030 12.994500 -0.242716 -4.980390 88.222800 6.181350 -73.924900 -5.348130 -0.000001 -0.000004 -63.593600 38.290100 -19.352900 -24.328900 0.000322 -0.000009 3.962340 11.422200 -19.282400 -22.291500 -0.000108 -0.000004 -3.837370 5.316260 -0.355990 -2.192480 -6.469440 -0.000000 -175.677000 -6.511570 -3.041580 39.081100 -0.000007 -0.000012 -0.095981 0.224162 23.179600 40.985400 -0.000006 -0.000013 -0.255852 2.706770 -65.702800 11.754300 -0.000000 0.000003 -0.000038 -0.000440 -16.594700 -2.192510 6.469440 -0.000001 179.641000 14.871000 -179.859000 -39.081100 -0.002282 -0.040193 -0.020285 0.066265 19.608400 -40.985400 0.000008 0.000006 3.660420 6.189240 -65.549200 -11.754300 -0.000006 -0.000006 -0.006126 -0.071980 -19.502700
0.000000 0.000000 0.000000 0.000000 0.000000 -0.000000 -0.709464 92.337600 -2.290280 88.109200 -0.770494 4.783350 15.735700 0.000005 -0.000001 82.836100 85.172100 -82.496600 8.984550 -0.406207 -0.000000 1.818590 -1.221060 0.697736 16.377300 -0.000001 -0.000001 1.728000 -2.557410 0.618111 6.456720 -0.000001 -0.000000 4.461650 -2.621630 -0.543301 12.994200 -0.242716 4.980390 -90.300400 1.016300 -73.532900 5.348090 -0.000007 -0.000001 -60.492200 34.132400 -23.577000 24.328600 0.000019 0.000005 3.453550 6.706320 -27.323000 22.291600 -0.000001 0.000005 -7.653450 5.285340 0.488579 12.994500 -0.242716 -4.980390 88.218900 6.168020 -73.859200 -5.348130 -0.000001 -0.000004 -61.532200 35.560000 -22.314100 -24.328900 0.000322 -0.000009 4.399000 11.437000 -21.208600 -22.291500 -0.000108 -0.000004 -10.449700 5.250640 1.454220 -2.192480 -6.469440 -0.000000 -175.661000 -6.419690 -3.033630 39.081100 -0.000007 -0.000012 -0.096553 0.224305 23.289700 40.985400 -0.000006 -0.000013 -0.259869 2.782440 -65.671300 11.754300 -0.000000 0.000003 -0.000034 -0.000407 -16.593400 -2.192510 6.469440 -0.000001 179.624000 14.902700 -179.830000 -39.081100 -0.002282 -0.040193 -0.022587 0.072158 19.750900 -40.985400 0.000008 0.000006 3.615630 6.061290 -65.554600 -11.754300 -0.000006 -0.000006 -0.006422 -0.074618 -19.610300
0.000000 0.000000 0.000000 0.000000 0.000000 -0.000000 -0.747982 92.333600 -2.445310 88.141300 -0.652761 5.065480 15.735700 0.000005 -0.000001 82.708000 85.140400 -82.396000 8.984550 -0.406207 -0.000000 1.878400 -1.248880 0.643805 16.377300 -0.000001 -0.000001 2.276960 -2.586030 0.610830 6.456720 -0.000001 -0.000000 4.741190 -2.664500 -0.446315 12.994200 -0.242716 4.980390 -90.269700 0.927094 -73.780200 5.348090 -0.000007 -0.000001 -57.399000 29.228700 -27.775700 24.328600 0.000019 0.000005 4.459320 7.502530 -30.845500 22.291600 -0.000001 0.000005 -7.915370 5.265630 1.015450 12.994500 -0.242716 -4.980390 88.235000 6.041680 -73.681000 -5.348130 -0.000001 -0.000004 -58.368200 32.049900 -26.794900 -24.328900 0.000322 -0.000009 5.457950 11.987800 -24.704400 -22.291500 -0.000108 -0.000004 -13.910900 5.184710 3.101900 -2.192480 -6.469440 -0.000000 -175.645000 -6.394230 -2.908030 39.081100 -0.000007 -0.000012 -0.096232 0.222830 23.357800 40.985400 -0.000006 -0.000013 -0.253775 2.888200 -65.587000 11.754300 -0.000000 0.000003 -0.000036 -0.000421 -16.594000 -2.192510 6.469440 -0.000001 179.563000 14.939900 -179.698000 -39.081100 -0.002282 -0.040193 -0.023828 0.075080 19.880300 -40.985400 0.000008 0.000006 3.583590 5.981520 -65.524800 -11.754300 -0.000006 -0.000006 -0.006384 -0.074280 -19.596500
0.000000 0.000000 0.000000 0.000000 0.000000 -0.000000 -0.775814 92.317900 -2.580570 88.118100 -0.618169 5.353680 15.735700 0.000005 -0.000001 82.593800 85.138100 -82.292000 8.984550 -0.406207 -0.000000 1.880550 -1.268150 0.623816 16.377300 -0.000001 -0.000001 2.876810 -2.593800 0.611898 6.456720 -0.000001 -0.000000 5.411540 -2.636840 -0.381927 12.994200 -0.242716 4.980390 -90.223500 0.785432 -74.115200 5.348090 -0.000007 -0.000001 -54.507000 23.063000 -32.121200 24.328600 0.000019 0.000005 5.293000 7.340430 -35.945100 22.291600 -0.000001 0.000005 -5.343430 5.297530 0.154571 12.994500 -0.242716 -4.980390 88.249300 5.949120 -73.569500 -5.348130 -0.000001 -0.000004 -55.056800 27.297300 -31.825800 -24.328900 0.000322 -0.000009 7.296840 12.789700 -30.044900 -22.291500 -0.000108 -0.000004 -11.746100 5.162940 3.632230 -2.192480 -6.469440 -0.000000 -175.571000 -6.396710 -2.810160 39.081100 -0.000007 -0.000012 -0.096506 0.221555 23.537200 40.985400 -0.000006 -0.000013 -0.253138 2.954400 -65.575000 11.754300 -0.000000 0.000003 -0.000033 -0.000390 -16.592800 -2.192510 6.469440 -0.000001 179.508000 15.018600 -179.554000 -39.081100 -0.002282 -0.040193 -0.030946 0.094132 20.003300 -40.985400 0.000008 0.000006 3.339880 6.057090 -65.462600 -11.754300 -0.000006 -0.000006 -0.006460 -0.074960 -19.624200
0.000000 0.000000 0.000000 0.000000 0.000000 -0.000000 -0.796207 92.318900 -2.720210 88.093600 -0.695677 5.598220 15.735700 0.000005 -0.000001 82.620100 85.163900 -82.333100 8.984550 -0.406207 -0.000000 1.829740 -1.256480 0.593527 16.377300 -0.000001 -0.000001 3.448720 -2.584790 0.671542 6.456720 -0.000001 -0.000000 6.176810 -2.601060 -0.331045 12.994200 -0.242716 4.980390 -90.150800 0.537188 -74.317500 5.348090 -0.000007 -0.000001 -52.232300 15.974100 -36.579600 24.328600 0.000019 0.000005 6.523220 7.164850 -42.506700 22.291600 -0.000001 0.000005 -2.433010 5.339330 -1.048020 12.994500 -0.242716 -4.980390 88.281600 5.815060 -73.506100 -5.348130 -0.000001 -0.000004 -52.429000 21.288400 -36.873100 -24.328900 0.000322 -0.000009 10.448900 13.971400 -37.365100 -22.291500 -0.000108 -0.000004 -6.401370 5.184350 3.123570 -2.192480 -6.469440 -0.000000 -175.506000 -6.457640 -2.674970 39.081100 -0.000007 -0.000012 -0.096124 0.220079 23.594400 40.985400 -0.000006 -0.000013 -0.265451 2.942170 -65.514500 11.754300 -0.000000 0.000003 -0.000038 -0.000441 -16.594700 -2.192510 6.469440 -0.000001 179.493000 14.981700 -179.413000 -39.081100 -0.002282 -0.040193 -0.033940 0.102180 20.035300 -40.985400 0.000008 0.000006 3.286380 6.121040 -65.378700 -11.754300 -0.000006 -0.000006 -0.006233 -0.072934 -19.541600
0.000000 0.000000 0.000000 0.000000 0.000000 -0.000000 -0.809746 92.304400 -2.831860 88.070900 -0.815310 5.806950 15.735700 0.000005 -0.000001 82.749800 85.172000 -82.470300 8.984550 -0.406207 -0.000000 1.816230 -1.232380 0.578099 16.377300 -0.000001 -0.000001 3.845200 -2.553690 0.712674 6.456720 -0.000001 -0.000000 6.819550 -2.605350 -0.300966 12.994200 -0.242716 4.980390 -89.959000 -0.147780 -74.469500 5.348090 -0.000007 -0.000001 -51.664100 8.239990 -41.022700 24.328600 0.000019 0.000005 8.506770 7.219770 -49.954700 22.291600 -0.000001 0.000005 0.997309 5.388130 -2.535580 12.994500 -0.242716 -4.980390 88.406300 5.397890 -73.523800 -5.348130 -0.000001 -0.000004 -51.333500 14.265900 -41.767400 -24.328900 0.000322 -0.000009 15.346400 15.044500 -46.588000 -22.291500 -0.000108 -0.000004 0.971990 5.240420 1.741740 -2.192480 -6.469440 -0.000000 -175.459000 -6.460620 -2.599160 39.081100 -0.000007 -0.000012 -0.096316 0.218957 23.744200 40.985400 -0.000006 -0.000013 -0.283999 2.865080 -65.523600 11.754300 -0.000000 0.000003 -0.000038 -0.000444 -16.594800 -2.192510 6.469440 -0.000001 179.456000 14.926300 -179.332000 -39.081100 -0.002282 -0.040193 -0.040015 0.118180 20.137700 -40.985400 0.000008 0.000006 3.036490 6.229730 -65.312500 -11.754300 -0.000006 -0.000006 -0.006198 -0.072622 -19.528800
0.000000 0.000000 0.000000 0.000000 0.000000 -0.000000 -0.802810 92.322000 -2.917460 88.068100 -0.910786 5.889530 15.735700 0.000005 -0.000001 82.616800 85.193300 -82.319600 8.984550 -0.406207 -0.000000 1.771500 -1.250200 0.613204 16.377300 -0.000001 -0.000001 4.079130 -2.484990 0.735987 6.456720 -0.000001 -0.000000 7.289940 -2.542740 -0.419425 12.994200 -0.242716 4.980390 -89.676700 -1.166700 -74.511100 5.348090 -0.000007 -0.000001 -52.613300 0.564472 -45.702000 24.328600 0.000019 0.000005 9.823650 6.389440 -57.271700 22.291600 -0.000001 0.000005 4.864800 5.447740 -4.525540 12.994500 -0.242716 -4.980390 88.622100 4.706190 -73.660200 -5.348130 -0.000001 -0.000004 -51.481600 6.963350 -46.830900 -24.328900 0.000322 -0.000009 17.513200 12.499300 -55.562200 -22.291500 -0.000108 -0.000004 8.847200 5.332010 -0.766199 -2.192480 -6.469440 -0.000000 -175.457000 -6.481710 -2.517510 39.081100 -0.000007 -0.000012 -0.095307 0.217588 23.654300 40.985400 -0.000006 -0.000013 -0.290502 2.808680 -65.427900 11.754300 -0.000000 0.000003 -0.000037 -0.000435 -16.594500 -2.192510 6.469440 -0.000001 179.459000 14.956100 -179.294000 -39.081100 -0.002282 -0.040193 -0.035701 0.106658 20.095500 -40.985400 0.000008 0.000006 3.241080 6.322680 -65.254200 -11.754300 -0.000006 -0.000006 -0.006504 -0.075351 -19.640200
